<?xml version="1.0" encoding="UTF-8" standalone="no"?>
<!-- Created with Inkscape (http://www.inkscape.org/) -->

<svg
   xmlns:dc="http://purl.org/dc/elements/1.1/"
   xmlns:cc="http://creativecommons.org/ns#"
   xmlns:rdf="http://www.w3.org/1999/02/22-rdf-syntax-ns#"
   xmlns:svg="http://www.w3.org/2000/svg"
   xmlns="http://www.w3.org/2000/svg"
   xmlns:xlink="http://www.w3.org/1999/xlink"
   xmlns:sodipodi="http://sodipodi.sourceforge.net/DTD/sodipodi-0.dtd"
   xmlns:inkscape="http://www.inkscape.org/namespaces/inkscape"
   width="300"
   height="300"
   id="svg2"
   inkscape:label="Pozadí"
   version="1.1"
   inkscape:version="0.48.3.1 r9886"
   sodipodi:docname="logo.svg"
   inkscape:export-filename="/home/mcbig/mcbig-dev/www/poorhttp/small-logo.png"
   inkscape:export-xdpi="24"
   inkscape:export-ydpi="24">
  <defs
     id="defs3088">
    <radialGradient
       inkscape:collect="always"
       xlink:href="#linearGradient2795"
       id="radialGradient1480"
       gradientUnits="userSpaceOnUse"
       gradientTransform="matrix(2.382716e-8,-0.296405,1.43676,4.683673e-7,-128.544,150.5202)"
       cx="61.518883"
       cy="132.28575"
       fx="61.518883"
       fy="132.28575"
       r="29.036913" />
    <linearGradient
       id="linearGradient2795">
      <stop
         style="stop-color:#b8b8b8;stop-opacity:0.49803922;"
         offset="0"
         id="stop2797" />
      <stop
         style="stop-color:#7f7f7f;stop-opacity:0;"
         offset="1"
         id="stop2799" />
    </linearGradient>
    <linearGradient
       inkscape:collect="always"
       xlink:href="#linearGradient4671"
       id="linearGradient1475"
       gradientUnits="userSpaceOnUse"
       gradientTransform="matrix(1.1891198,0,0,1.2006,4.3252375,735.65843)"
       x1="150.96111"
       y1="192.35176"
       x2="112.03144"
       y2="137.27299" />
    <linearGradient
       id="linearGradient4671">
      <stop
         style="stop-color:#ff0000;stop-opacity:1;"
         offset="0"
         id="stop4673" />
      <stop
         style="stop-color:#ff3d3d;stop-opacity:1;"
         offset="1"
         id="stop4675" />
    </linearGradient>
    <linearGradient
       inkscape:collect="always"
       xlink:href="#linearGradient4689"
       id="linearGradient1478"
       gradientUnits="userSpaceOnUse"
       gradientTransform="matrix(0.562541,0,0,0.567972,-8.467854,-1.0299375)"
       x1="26.648937"
       y1="20.603781"
       x2="135.66525"
       y2="114.39767" />
    <linearGradient
       id="linearGradient4689">
      <stop
         style="stop-color:#5a9f00;stop-opacity:1;"
         offset="0"
         id="stop4691" />
      <stop
         style="stop-color:#306900;stop-opacity:1;"
         offset="1"
         id="stop4693" />
    </linearGradient>
    <linearGradient
       y2="114.39767"
       x2="135.66525"
       y1="20.603781"
       x1="26.648937"
       gradientTransform="matrix(1.1891198,0,0,1.2006,4.3252375,735.65843)"
       gradientUnits="userSpaceOnUse"
       id="linearGradient3085"
       xlink:href="#linearGradient4689"
       inkscape:collect="always" />
    <radialGradient
       inkscape:collect="always"
       xlink:href="#linearGradient2795"
       id="radialGradient3131"
       gradientUnits="userSpaceOnUse"
       gradientTransform="matrix(2.382716e-8,-0.296405,1.43676,4.683673e-7,-128.544,150.5202)"
       cx="61.518883"
       cy="132.28575"
       fx="61.518883"
       fy="132.28575"
       r="29.036913" />
  </defs>
  <sodipodi:namedview
     id="base"
     pagecolor="#ffffff"
     bordercolor="#666666"
     borderopacity="1.0"
     inkscape:pageopacity="0.0"
     inkscape:pageshadow="2"
     inkscape:zoom="1.72"
     inkscape:cx="150"
     inkscape:cy="138.15871"
     inkscape:document-units="px"
     inkscape:current-layer="layer1"
     showgrid="false"
     inkscape:window-width="1035"
     inkscape:window-height="714"
     inkscape:window-x="198"
     inkscape:window-y="52"
     inkscape:window-maximized="0" />
  <metadata
     id="metadata3091">
    <rdf:RDF>
      <cc:Work
         rdf:about="">
        <dc:format>image/svg+xml</dc:format>
        <dc:type
           rdf:resource="http://purl.org/dc/dcmitype/StillImage" />
        <dc:title></dc:title>
      </cc:Work>
    </rdf:RDF>
  </metadata>
  <g
     inkscape:label="Vrstva 1"
     inkscape:groupmode="layer"
     id="layer1"
     transform="translate(0,-752.36218)">
    <path
       inkscape:connector-curvature="0"
       style="fill:url(#linearGradient3085);fill-opacity:1"
       d="m 152.10334,760.39728 c -9.68909,0.045 -18.94196,0.87134 -27.08352,2.312 -23.98406,4.23719 -28.338623,13.106 -28.338623,29.46158 l 0,21.60077 56.677243,0 0,7.20026 -56.677243,0 -21.270484,0 c -16.471983,0 -30.895333,9.90061 -35.406767,28.73496 -5.203885,21.58856 -5.434696,35.06016 0,57.60205 4.028825,16.77933 13.650193,28.73496 30.122177,28.73496 l 19.486935,0 0,-25.8945 c 0,-18.70723 16.185942,-35.20857 35.406762,-35.20858 l 56.61118,0 c 15.75855,0 28.33863,-12.97507 28.33863,-28.80103 l 0,-53.96889 c 0,-15.35983 -12.95779,-26.89809 -28.33863,-29.46158 -9.7363,-1.62074 -19.83856,-2.35703 -29.52766,-2.312 z m -30.65062,17.37309 c 5.85437,0 10.63523,4.85895 10.63523,10.83339 0,5.95328 -4.78086,10.76736 -10.63523,10.76736 -5.87536,0 -10.63525,-4.81408 -10.63525,-10.76736 0,-5.97444 4.75989,-10.83339 10.63525,-10.83339 z"
       id="path1948" />
    <path
       inkscape:connector-curvature="0"
       style="fill:url(#linearGradient1475);fill-opacity:1"
       d="m 217.03776,820.97189 0,25.16786 c 0,19.51231 -16.54264,35.93522 -35.40676,35.93522 l -56.61118,0 c -15.50676,0 -28.338623,13.27171 -28.338623,28.80102 l 0,53.96889 c 0,15.35989 13.356463,24.39437 28.338623,28.80107 17.94082,5.27533 35.14515,6.22862 56.61118,0 14.26873,-4.13128 28.33863,-12.44547 28.33863,-28.80107 l 0,-21.60074 -56.61119,0 0,-7.20028 56.61119,0 28.33863,0 c 16.472,0 22.61012,-11.48954 28.33861,-28.73496 5.91732,-17.75387 5.66554,-34.82709 0,-57.60205 -4.07078,-16.39797 -11.84567,-28.73496 -28.33861,-28.73496 l -21.2705,0 z M 185.1981,957.64464 c 5.87536,0 10.63524,4.81409 10.63524,10.76734 0,5.97447 -4.75988,10.83344 -10.63524,10.83344 -5.85437,0 -10.63524,-4.85897 -10.63524,-10.83344 0,-5.95325 4.78087,-10.76734 10.63524,-10.76734 z"
       id="path1950" />
    <path
       sodipodi:type="arc"
       style="opacity:0.44382025;fill:url(#radialGradient3131);fill-opacity:1;fill-rule:nonzero;stroke:none"
       id="path1894"
       sodipodi:cx="61.518883"
       sodipodi:cy="132.28575"
       sodipodi:rx="48.948284"
       sodipodi:ry="8.6066771"
       d="m 110.46717,132.28575 c 0,4.75334 -21.914896,8.60668 -48.948287,8.60668 -27.033391,0 -48.948284,-3.85334 -48.948284,-8.60668 0,-4.75334 21.914893,-8.60668 48.948284,-8.60668 27.033391,0 48.948287,3.85334 48.948287,8.60668 z"
       transform="matrix(1.551683,0,0,1.7112014,58.543714,803.96635)" />
  </g>
</svg>
